# xmcd
#
# Track frame offsets: 
#        150
#        30843
#        46666
#        65757
#        83468
#        99694
#        119537
#        137876
#        167570
#        186162
#        225941
#        247737
#        280367
#        298229
#        315348
#
# Disc length: 4670 seconds
#
# Revision: 0
# Processed by: cddbd v1.5.2PL0 Copyright (c) Steve Scherf et al.
# Submitted via: ExactAudioCopy v1.0b3
#
DISCID=c3123c0f
DTITLE=Various Artist - Deejay Sounds Vol. 2 - CD 2
DYEAR=1900
DGENRE=
TTITLE0=Nathalie De Borah - Schlacht Am Rosensee
TTITLE1=Potatoheads - Mix The Master (Radio Edit)
TTITLE2=MK-6 Feat. K.K. Project - Get Funky 2001
TTITLE3=Riddler and Headcrusher - Plasma Fire (Edit)
TTITLE4=Killer K - Ready For Take Off (Radio Version 1)
TTITLE5=Ultrakomm - UK Disco
TTITLE6=DJ Darkzone - Power and Energy (Short Cut)
TTITLE7=Samira - My Dreams (Melanie De Tria Rmx)
TTITLE8=Unix - La Musique (Edit)
TTITLE9=3 Years 3 Days - Temple Of Dance (DJ Shah Rmx)
TTITLE10=Los Pablos - Let Us Fly (Xtd Mix)
TTITLE11=M. Franco - Antidote
TTITLE12=In Credo - Suela (Lo Fi Mix)
TTITLE13=R.E.D. S.E.C.T.O.R. - Invasion Over Berlin (Kosmonova Single 
TTITLE13=Mix)
TTITLE14=Groovelikers - Grooveliker (Jens O. Mix)
EXTD=
EXTT0=
EXTT1=
EXTT2=
EXTT3=
EXTT4=
EXTT5=
EXTT6=
EXTT7=
EXTT8=
EXTT9=
EXTT10=
EXTT11=
EXTT12=
EXTT13=
EXTT14=
PLAYORDER=
